<?xml version="1.0" encoding="utf-8"?>
<!-- Generator: Adobe Illustrator 18.1.0, SVG Export Plug-In . SVG Version: 6.00 Build 0)  -->
<!DOCTYPE svg PUBLIC "-//W3C//DTD SVG 1.1//EN" "http://www.w3.org/Graphics/SVG/1.1/DTD/svg11.dtd">
<svg version="1.1" id="Layer_1" xmlns="http://www.w3.org/2000/svg" xmlns:xlink="http://www.w3.org/1999/xlink" x="0px" y="0px"
	 viewBox="0 0 1100 1100" enable-background="new 0 0 1100 1100" xml:space="preserve">
<path fill="#FFFFFF" d="M675,268.8c0,17.3-14,31.3-31.3,31.3c-17.3,0-31.2-14-31.2-31.3s14-31.2,31.2-31.2
	C661,237.5,675,251.5,675,268.8L675,268.8z M487.5,268.8c0,17.3-14,31.3-31.2,31.3c-17.2,0-31.2-14-31.2-31.3s14-31.2,31.2-31.2
	C473.5,237.5,487.5,251.5,487.5,268.8L487.5,268.8z M928.8,710L928.8,710c-5.7,5.6-13.6,9.2-22.2,9.2c-17.3,0-31.4-14.1-31.4-31.4
	c0-9.3,4.1-17.5,10.6-23.3c4.9-5.5,8-12.8,8-20.7V456.2c0-17.2-14-31.2-31.2-31.2c-17.2,0-31.2,14-31.2,31.2v187.5v88v5.7
	c0,40.9-19.7,77-50,99.8c-0.1,0.1-0.2,0.4-0.3,0.5c-7.4,5.7-12.2,14.7-12.2,24.8v93.8c0,51.7-42,93.7-93.7,93.7
	c-51.8,0-93.8-42-93.8-93.7v-1.6V886c0-13-10.5-23.4-23.4-23.4h-15.6c-12.9,0-23.4,10.5-23.4,23.4v68.8v1.6
	c0,51.7-42,93.7-93.7,93.7c-51.8,0-93.8-42-93.8-93.7v-93.8c0-10.1-4.8-19.1-12.2-24.8c-0.1-0.1-0.2-0.4-0.3-0.5
	c-30.3-22.8-50-58.9-50-99.8v-5.7c-9.8,3.5-20.3,5.7-31.2,5.7c-51.8,0-93.7-42-93.7-93.7V456.2c0-49.6,38.7-89.8,87.4-93.1
	c2-0.4,4.1-0.6,6.3-0.6h31.2h62.5h152.3H550h125c34.5,0,62.5-28,62.5-62.5c0-13.3-4.2-25.5-11.3-35.6C686.4,210.3,622.4,175,550,175
	c-86.4,0-161.1,50.2-196.6,122.9l-0.1,0c-5.1,10.4-15.8,17.7-28.2,17.7c-17.4,0-31.5-14.1-31.5-31.5c0-7.7,2.9-14.7,7.5-20.1
	c23.1-44.3,57.6-81.7,99.5-108.2l-34-58.9c-8.6-15-3.5-34.1,11.4-42.7c14.9-8.6,34.1-3.5,42.7,11.5l36.3,62.8
	c29.1-10.2,60.3-15.9,92.9-15.9c32.6,0,63.8,5.9,92.8,16.1l36.3-62.9c8.7-15,27.7-20.1,42.7-11.5c14.9,8.7,20,27.7,11.4,42.7
	l-34.1,59c30,19,56.4,43.1,77.3,71.7C791.1,248.1,800,273,800,300c0,69-56,125-125,125H362.5h-31.2h-93.7c-17.2,0-31.3,14-31.3,31.2
	v187.5c0,17.2,14,31.2,31.3,31.2c17.3,0,31.2-14,31.2-31.2v-125c0-17.2,14-31.3,31.2-31.3c17.3,0,31.2,14,31.2,31.3v218.7
	c0,23.4,13,43.5,32,54.3c18.3,11,30.5,30.8,30.5,53.7v110.9c0,17.2,14,31.2,31.3,31.2c17.2,0,31.2-14,31.2-31.2v-78.1
	c0-43.2,35-78.1,78.1-78.1h31.2c43.2,0,78.1,35,78.1,78.1v78.1c0,17.2,14,31.2,31.3,31.2c17.2,0,31.2-14,31.2-31.2V845.4
	c0-22.8,12.2-42.7,30.5-53.7c19-10.7,32-30.9,32-54.3v-93.7V487.5v-31.3c0-51.7,42-93.7,93.8-93.7c51.8,0,93.8,42,93.8,93.7v187.5
	C956.2,669.7,945.7,693.1,928.8,710L928.8,710z M568,644.1c22-8.5,33.1-33.2,24.6-55.2c-8.5-22-33.2-33.1-55.2-24.6
	c-22,8.5-33.1,33.2-24.6,55.2c4.3,11.3,13.3,20.2,24.6,24.6l-28.8,75c-63.5-24.4-95.2-95.6-70.8-159.1s95.6-95.2,159.1-70.8
	c63.5,24.4,95.2,95.6,70.8,159.1c-12.5,32.6-38.2,58.3-70.8,70.8L568,644.1z"/>
</svg>
